<?xml version="1.0" encoding="UTF-8"?>
<svg version="1.1" xmlns="http://www.w3.org/2000/svg" width="289" height="236">
<path d="M0 0 C1.19625 0.32871094 2.3925 0.65742187 3.625 0.99609375 C20.79409827 6.16470771 37.4517454 15.24965102 49.3125 28.875 C53.58465178 33.3674469 58.13679251 34.40308215 63.984375 35.63012695 C75.91267584 38.15202264 84.25508212 44.66669673 92 54 C94.28904795 57.55274633 96.22844372 61.16613585 98 65 C98.33 65.66 98.66 66.32 99 67 C99.05607422 65.80503906 99.05607422 65.80503906 99.11328125 64.5859375 C99.59054859 56.89351094 100.10045182 51.77348087 105.875 46.25 C111.38533315 42.28256013 114.88486615 41.60110825 121.56640625 42.46484375 C126.56964197 43.56507376 129.25173933 46.02928346 132.3125 50 C134.58577053 54.04136984 135.12339195 57.15560337 135.14717102 61.75506592 C135.15790398 63.18479233 135.15790398 63.18479233 135.16885376 64.6434021 C135.17154266 65.68243683 135.17423157 66.72147156 135.17700195 67.79199219 C135.18357315 68.891633 135.19014435 69.9912738 135.19691467 71.12423706 C135.21663332 74.76511707 135.22830676 78.40595587 135.23828125 82.046875 C135.24235678 83.29093361 135.2464323 84.53499222 135.25063133 85.81674957 C135.2693361 91.72208116 135.28390363 97.62739969 135.2922433 103.53275371 C135.30200965 110.33480148 135.32831845 117.13652331 135.36874419 123.9384563 C135.40261663 129.84162651 135.41439429 135.74471745 135.41844749 141.64798737 C135.42331619 144.15337587 135.43493813 146.65876081 135.45348549 149.16408539 C135.47785014 152.67313026 135.47691629 156.181326 135.4699707 159.69042969 C135.48918579 161.2368364 135.48918579 161.2368364 135.50878906 162.81448364 C135.45916492 169.7068063 134.40787376 175.42123182 129.51721668 180.55714035 C124.98687675 184.5157606 121.23002559 185.36259402 115.4140625 185.27734375 C110.76627862 184.74337505 106.70550058 182.96973306 103.61328125 179.3984375 C102.5 177.75 102.5 177.75 101 175 C100.34 175.9075 99.68 176.815 99 177.75 C95.07302911 182.43130428 90.50598779 184.64200174 84.5 185.5 C78.65424742 184.66489249 74.01915086 182.51263364 70.125 178 C68.47211734 175.6665186 67.22214821 173.55439985 66 171 C65.42894531 171.78761719 64.85789063 172.57523438 64.26953125 173.38671875 C45.18004423 199.236064 20.60187118 215.4503832 -11.140625 221.609375 C-26.79490075 223.19381587 -43.82228431 223.50588434 -59 219 C-60.794375 218.50693359 -60.794375 218.50693359 -62.625 218.00390625 C-89.86530823 209.80343846 -114.28711228 190.73758773 -128.21923828 165.81933594 C-141.93365846 140.05617026 -147.44049282 108.4311337 -139 80 C-138.67128906 78.80375 -138.34257812 77.6075 -138.00390625 76.375 C-129.80343846 49.13469177 -110.73758773 24.71288772 -85.81933594 10.78076172 C-60.05617026 -2.93365846 -28.4311337 -8.44049282 0 0 Z " fill="#ED184F" transform="translate(154,3)"/>
<path d="M0 0 C1.6660399 1.00104386 3.33256754 2.00127743 5 3 C5.67804688 2.54109375 6.35609375 2.0821875 7.0546875 1.609375 C22.36555125 -8.48476786 38.51169549 -11.68301935 56.69140625 -8.31640625 C59.60394559 -7.40125373 62.25838836 -6.33941332 65 -5 C65.85464844 -4.5875 66.70929688 -4.175 67.58984375 -3.75 C78.50637937 2.17083288 85.7690594 10.88183842 91 22 C91.33 22.66 91.66 23.32 92 24 C92.03738281 23.20335937 92.07476562 22.40671875 92.11328125 21.5859375 C92.59054859 13.89351094 93.10045182 8.77348087 98.875 3.25 C104.38533315 -0.71743987 107.88486615 -1.39889175 114.56640625 -0.53515625 C119.56964197 0.56507376 122.25173933 3.02928346 125.3125 7 C127.58577053 11.04136984 128.12339195 14.15560337 128.14717102 18.75506592 C128.15790398 20.18479233 128.15790398 20.18479233 128.16885376 21.6434021 C128.17154266 22.68243683 128.17423157 23.72147156 128.17700195 24.79199219 C128.18357315 25.891633 128.19014435 26.9912738 128.19691467 28.12423706 C128.21663332 31.76511707 128.22830676 35.40595587 128.23828125 39.046875 C128.24235678 40.29093361 128.2464323 41.53499222 128.25063133 42.81674957 C128.2693361 48.72208116 128.28390363 54.62739969 128.2922433 60.53275371 C128.30200965 67.33480148 128.32831845 74.13652331 128.36874419 80.9384563 C128.40261663 86.84162651 128.41439429 92.74471745 128.41844749 98.64798737 C128.42331619 101.15337587 128.43493813 103.65876081 128.45348549 106.16408539 C128.47785014 109.67313026 128.47691629 113.181326 128.4699707 116.69042969 C128.48918579 118.2368364 128.48918579 118.2368364 128.50878906 119.81448364 C128.45916492 126.7068063 127.40787376 132.42123182 122.51721668 137.55714035 C117.98687675 141.5157606 114.23002559 142.36259402 108.4140625 142.27734375 C103.76627862 141.74337505 99.70550058 139.96973306 96.61328125 136.3984375 C95.5 134.75 95.5 134.75 94 132 C93.34 132.9075 92.68 133.815 92 134.75 C88.07302911 139.43130428 83.50598779 141.64200174 77.5 142.5 C71.60718 141.65816857 66.99002313 139.47622269 63.0625 134.9375 C59.68430429 130.12613036 59.84932206 125.98065985 59.84228516 120.30932617 C59.83720444 119.42119736 59.83212372 118.53306854 59.82688904 117.61802673 C59.81618472 115.6880867 59.80756478 113.75813425 59.80076981 111.8281765 C59.78898306 108.77237331 59.76953046 105.71671159 59.74765015 102.66096497 C59.68602821 93.97218539 59.63199663 85.28342008 59.59863281 76.59448242 C59.57767839 71.28058417 59.54236807 65.96694352 59.49787521 60.65319252 C59.48372048 58.62906236 59.47499397 56.60488662 59.47182083 54.58070946 C59.46690779 51.74648496 59.44373922 48.91294303 59.41650391 46.07885742 C59.41951004 45.24487427 59.42251617 44.41089111 59.4256134 43.55163574 C59.34579209 37.95330988 58.39230483 33.68576089 54.53515625 29.35546875 C48.60370424 24.65121371 43.38250808 24.42272117 36 25 C31.99844336 25.69351068 29.10940385 26.70017608 26.4296875 29.83984375 C23.35368296 34.55931357 21.87760637 38.62163874 21.87402344 44.27441406 C21.87021667 45.10918274 21.86640991 45.94395142 21.86248779 46.80401611 C21.86146057 47.69884705 21.86043335 48.59367798 21.859375 49.515625 C21.84104421 51.42579315 21.82147364 53.33594973 21.80078125 55.24609375 C21.77185775 58.24580413 21.75000085 61.24477015 21.74951172 64.24462891 C21.74616171 67.14812644 21.71152132 70.04992451 21.671875 72.953125 C21.6789447 73.83985901 21.6860144 74.72659302 21.69329834 75.64019775 C21.57331078 81.83405845 20.14022929 86.29005778 16 91 C11.72680324 94.11171772 7.34120232 95.75323793 2.015625 95.44921875 C-3.68118972 94.17957981 -7.99298129 90.73516975 -11.14373779 85.88739014 C-12.84468729 82.13812352 -12.51946067 78.15192298 -12.46875 74.10546875 C-12.47579956 73.15867752 -12.48284912 72.21188629 -12.4901123 71.23640442 C-12.51947709 67.20685519 -12.50302283 63.17779558 -12.49072266 59.14819336 C-12.48832789 56.19616361 -12.5093371 53.24490264 -12.53125 50.29296875 C-12.51993042 49.39579636 -12.50861084 48.49862396 -12.49694824 47.57426453 C-12.55464222 40.27874976 -14.39782711 34.38282476 -18.875 28.5625 C-24.33808607 24.54552495 -30.45544717 24.33621017 -37 25 C-42.05930925 26.22882653 -45.18012808 28.61353258 -48 33 C-50.30233264 37.48029767 -50.28042034 41.77622509 -50.25537109 46.70239258 C-50.26080177 48.00094429 -50.26080177 48.00094429 -50.26634216 49.32572937 C-50.27322235 51.20106263 -50.27574419 53.07641585 -50.27439499 54.95176125 C-50.2734278 57.92433267 -50.28639539 60.89654443 -50.30337524 63.86906433 C-50.34958576 72.31901258 -50.37424604 80.76892385 -50.38085938 89.21899414 C-50.38588426 94.39259511 -50.41018415 99.56582046 -50.44618607 104.73929405 C-50.45596156 106.70595732 -50.45832834 108.67267241 -50.45301437 110.6393528 C-50.44591472 113.39644914 -50.46328558 116.15243253 -50.48583984 118.90942383 C-50.47766739 119.71437286 -50.46949493 120.5193219 -50.46107483 121.34866333 C-50.55378945 127.75012303 -52.30169813 133.17208538 -56.7890625 137.875 C-62.16311337 141.16803543 -66.7526762 141.95386991 -73 141 C-78.50638259 139.06256909 -81.43264969 136.0331433 -84.09220886 130.88635254 C-85.33151996 126.94592112 -85.28703946 123.30076668 -85.2746582 119.19335938 C-85.27976913 118.31618256 -85.28488007 117.43900574 -85.29014587 116.5352478 C-85.30403246 113.63801218 -85.30308462 110.74101495 -85.30078125 107.84375 C-85.30467104 105.81937574 -85.3090063 103.79500229 -85.31376648 101.77062988 C-85.32122843 97.52381754 -85.3209393 93.2770883 -85.31567383 89.03027344 C-85.3099045 83.61824114 -85.32674876 78.20655391 -85.3500185 72.79457855 C-85.36484193 68.60951789 -85.36561546 64.42453845 -85.36250877 60.23945618 C-85.3630185 58.24619366 -85.36819006 56.25292617 -85.37832069 54.25968933 C-85.46052682 35.80974481 -84.04631801 19.17792363 -70.6875 5.0625 C-50.95481138 -13.10621498 -22.30883548 -13.89945023 0 0 Z " fill="#FEFDFD" transform="translate(161,46)"/>
<path d="M0 0 C3.96725507 3.4949628 6.62612559 7.09287326 7.625 12.3125 C7.7194206 13.89546746 7.7639727 15.48180615 7.77217102 17.06756592 C7.77932632 18.02071686 7.78648163 18.9738678 7.79385376 19.9559021 C7.79654266 20.99493683 7.79923157 22.03397156 7.80200195 23.10449219 C7.81185875 24.7539534 7.81185875 24.7539534 7.82191467 26.43673706 C7.84163332 30.07761707 7.85330676 33.71845587 7.86328125 37.359375 C7.86735678 38.60343361 7.8714323 39.84749222 7.87563133 41.12924957 C7.8943361 47.03458116 7.90890363 52.93989969 7.9172433 58.84525371 C7.92700965 65.64730148 7.95331845 72.44902331 7.99374419 79.2509563 C8.02761663 85.15412651 8.03939429 91.05721745 8.04344749 96.96048737 C8.04831619 99.46587587 8.05993813 101.97126081 8.07848549 104.47658539 C8.10285014 107.98563026 8.10191629 111.493826 8.0949707 115.00292969 C8.10778076 116.03386749 8.12059082 117.0648053 8.13378906 118.12698364 C8.08416492 125.0193063 7.03287376 130.73373182 2.14221668 135.86964035 C-2.38812325 139.8282606 -6.14497441 140.67509402 -11.9609375 140.58984375 C-17.58352613 139.94388292 -21.32598307 137.63049562 -24.8125 133.25 C-26.82179353 129.47252816 -27.5007297 126.76537839 -27.51544189 122.55033875 C-27.52400711 121.08047516 -27.52400711 121.08047516 -27.53274536 119.58091736 C-27.53386322 118.50709305 -27.53498108 117.43326874 -27.53613281 116.3269043 C-27.54109772 115.19493622 -27.54606262 114.06296814 -27.55117798 112.896698 C-27.56581048 109.14336545 -27.57260341 105.39007516 -27.578125 101.63671875 C-27.58387551 99.03221129 -27.58963325 96.42770384 -27.59539795 93.82319641 C-27.6049685 89.05693752 -27.61086579 84.29068776 -27.6138947 79.52442044 C-27.61837372 72.51525281 -27.63591543 65.50628035 -27.6648953 58.49717206 C-27.68914138 52.42151747 -27.69684023 46.34594329 -27.69857025 40.27024269 C-27.70159898 37.6878535 -27.70963486 35.10546517 -27.72275543 32.52310753 C-27.7397995 28.91068084 -27.73793936 25.29872982 -27.73144531 21.6862793 C-27.7406601 20.61852768 -27.74987488 19.55077606 -27.7593689 18.45066833 C-27.7286085 12.99155926 -27.52427474 8.9887178 -24.375 4.3125 C-16.88720015 -2.84974333 -9.50485605 -4.75242802 0 0 Z " fill="#ED1950" transform="translate(281.375,47.6875)"/>
<path d="M0 0 C4.43394725 3.90609639 6.71900432 7.3388942 7.625 13.1875 C7.94880947 18.4395316 6.76416922 22.1082555 3.625 26.3125 C-0.24873442 30.36781572 -3.92187995 32.43531543 -9.5625 32.625 C-14.5534456 32.55184282 -18.35466462 31.28682052 -22.375 28.3125 C-27.00958049 22.48956553 -28.04621116 17.55909456 -27.375 10.3125 C-25.30594846 4.33524 -21.42976857 1.17930302 -16.125 -2.0625 C-10.45157228 -3.35191539 -5.1720804 -2.5860402 0 0 Z " fill="#EC174E" transform="translate(281.375,5.6875)"/>
</svg>
