<svg width="134" height="48" viewBox="0 0 134 48" fill="none" xmlns="http://www.w3.org/2000/svg">
<g clip-path="url(#clip0_1108_8147)">
<path d="M23.8734 48C37.0584 48 47.7469 37.2548 47.7469 24C47.7469 10.7452 37.0584 0 23.8734 0C10.6885 0 0 10.7452 0 24C0 37.2548 10.6885 48 23.8734 48Z" fill="#ED184F"/>
<path d="M24.8443 7.86719C27.8858 7.86719 30.4816 8.81119 32.6286 10.7008C34.7757 8.81119 37.3269 7.86719 40.2793 7.86719C44.037 7.86719 46.9893 9.21599 49.1379 11.9152C50.8377 13.984 51.643 16.3232 51.5539 18.9312V36.336C51.5539 37.6848 50.9714 38.72 49.8096 39.44C48.6461 40.1584 47.4381 40.1584 46.1856 39.44C45.0221 38.7216 44.4412 37.6864 44.4412 36.336V18.9312C44.1722 16.9984 43.456 15.784 42.2942 15.288C41.847 15.1088 41.1753 15.0176 40.2809 15.0176C38.5795 15.0176 37.4622 15.4672 36.9259 16.3664C36.4786 17.176 36.2097 18.0304 36.1205 18.9296V26.4176C36.1205 27.7664 35.538 28.8016 34.3762 29.5216C33.2128 30.2416 32.0048 30.2416 30.7522 29.5216C29.5888 28.8928 29.0078 27.8576 29.0078 26.4176V18.9296C28.7389 16.9968 28.0227 15.7824 26.8608 15.2864C26.4136 15.1072 25.742 15.016 24.8475 15.016C23.2368 15.016 22.1625 15.4656 21.6262 16.3648C21.0898 17.3088 20.7763 18.1648 20.6872 18.928V36.336C20.7763 37.6848 20.1938 38.72 18.9428 39.44C17.7794 40.1584 16.5714 40.1584 15.3188 39.44C14.1554 38.7216 13.5745 37.6864 13.5745 36.336V18.9312C13.9326 13.3552 16.4377 9.84639 21.0898 8.40639C22.2501 8.04799 23.5026 7.86719 24.8443 7.86719Z" fill="white"/>
<path d="M58.6221 13.4395H51.4282V36.4907H58.6221V13.4395Z" fill="#ED184F"/>
<path d="M55.0299 16.9955C57.0191 16.9955 58.6316 15.3744 58.6316 13.3747C58.6316 11.375 57.0191 9.75391 55.0299 9.75391C53.0408 9.75391 51.4282 11.375 51.4282 13.3747C51.4282 15.3744 53.0408 16.9955 55.0299 16.9955Z" fill="#ED184F"/>
<path d="M55.0299 8.03457C57.0191 8.03457 58.6316 6.41348 58.6316 4.41377C58.6316 2.41406 57.0191 0.792969 55.0299 0.792969C53.0408 0.792969 51.4282 2.41406 51.4282 4.41377C51.4282 6.41348 53.0408 8.03457 55.0299 8.03457Z" fill="#ED184F"/>
<path d="M55.0299 40.0346C57.0191 40.0346 58.6316 38.4135 58.6316 36.4138C58.6316 34.4141 57.0191 32.793 55.0299 32.793C53.0408 32.793 51.4282 34.4141 51.4282 36.4138C51.4282 38.4135 53.0408 40.0346 55.0299 40.0346Z" fill="#ED184F"/>
<path d="M83.6796 23.6595C83.1608 23.6595 82.739 23.2371 82.739 22.7139V15.2835C82.739 14.2307 82.4302 13.3219 81.835 12.5795C81.2398 11.8371 80.4312 11.4547 79.454 11.4547C78.4545 11.4547 77.5967 11.7891 76.8598 12.4355C76.1452 13.0819 75.7887 13.8947 75.7887 14.8771V17.9027C75.7887 18.4307 75.3621 18.8595 74.8369 18.8595C74.3117 18.8595 73.8852 18.4307 73.8852 17.9027V14.8771C73.8852 13.8963 73.5286 13.0819 72.7902 12.4355C72.0755 11.7891 71.2193 11.4547 70.2198 11.4547C69.2442 11.4547 68.4579 11.8371 67.8627 12.5795C67.2674 13.3219 66.9825 14.2067 66.9825 15.2835V22.7139C66.9825 23.2355 66.5624 23.6595 66.0419 23.6595C65.5231 23.6595 65.1013 23.2371 65.1013 22.7139V15.4995C65.1013 13.8003 65.5772 12.4131 66.5528 11.3827C67.4568 10.4019 68.6473 9.85154 70.1227 9.73154C72.0978 9.56354 73.6703 10.4259 74.8353 12.2675C76.0019 10.4243 77.5728 9.56354 79.5479 9.73154C81.0233 9.85154 82.2138 10.4019 83.1417 11.3827C84.1173 12.4115 84.6171 13.8003 84.6171 15.4995V22.7139C84.6202 23.2371 84.2001 23.6595 83.6796 23.6595Z" fill="#192020"/>
<path d="M87.4659 23.6595C86.9725 23.6595 86.573 23.2579 86.573 22.7619V10.9171C86.573 10.4211 86.9725 10.0195 87.4659 10.0195C87.9592 10.0195 88.3587 10.4211 88.3587 10.9171V22.7635C88.3587 23.2579 87.9592 23.6595 87.4659 23.6595Z" fill="#192020"/>
<path d="M101.416 23.659C100.91 23.659 100.499 23.2462 100.499 22.7374V15.691C100.499 14.5422 100.071 13.5614 99.2373 12.723C98.4049 11.8846 97.4515 11.4782 96.3327 11.4782C95.2138 11.4782 94.2143 11.8846 93.3803 12.723C92.5463 13.5598 92.1421 14.5422 92.1421 15.691V22.739C92.1421 23.2478 91.7315 23.6606 91.2253 23.6606C90.7192 23.6606 90.3086 23.2478 90.3086 22.739V15.8814C90.3086 14.1102 90.88 12.651 92.0227 11.4782C93.1655 10.3054 94.5931 9.70703 96.3311 9.70703C98.0452 9.70703 99.4728 10.3054 100.616 11.4782C101.758 12.651 102.33 14.1102 102.33 15.8814V22.7374C102.333 23.2462 101.922 23.659 101.416 23.659Z" fill="#192020"/>
<path d="M118.447 16.9111C118.495 18.8727 117.804 20.5719 116.353 22.0087C114.901 23.4199 113.211 24.1143 111.258 24.0423C109.377 23.9943 107.758 23.2759 106.45 21.8887C105.14 20.5015 104.499 18.8503 104.499 16.9351C104.499 14.9495 105.213 13.2263 106.617 11.8135C108.021 10.3783 109.711 9.68389 111.664 9.75589C113.663 9.82789 115.329 10.6407 116.663 12.1735V6.20229C116.663 5.70629 117.063 5.30469 117.556 5.30469C118.049 5.30469 118.449 5.70629 118.449 6.20229V16.9111H118.447ZM111.284 22.2487C112.783 22.3207 114.045 21.8183 115.092 20.6935C116.163 19.5687 116.663 18.2759 116.615 16.7687C116.591 15.3335 116.068 14.1127 115.092 13.0839C114.117 12.0551 112.95 11.5527 111.545 11.5527C110.117 11.5287 108.879 12.0551 107.855 13.0839C106.832 14.1127 106.332 15.3335 106.308 16.7927C106.285 18.2279 106.76 19.4967 107.736 20.5735C108.712 21.6503 109.878 22.2007 111.284 22.2487Z" fill="#192020"/>
<path d="M65.7125 40.0035C65.3751 40.0035 65.1013 39.7283 65.1013 39.3891V28.3331C65.1013 27.9939 65.3751 27.7188 65.7125 27.7188C66.0499 27.7188 66.3236 27.9939 66.3236 28.3331V39.3891C66.3236 39.7283 66.0499 40.0035 65.7125 40.0035Z" fill="#192020"/>
<path d="M75.0598 40.0036C74.7224 40.0036 74.4487 39.7284 74.4487 39.3892V34.69C74.4487 33.9236 74.1638 33.2692 73.6067 32.7108C73.0497 32.1524 72.4163 31.8804 71.6698 31.8804C70.9234 31.8804 70.2581 32.1524 69.7026 32.7108C69.1472 33.2692 68.8766 33.9236 68.8766 34.69V39.3892C68.8766 39.7284 68.6029 40.0036 68.2655 40.0036C67.928 40.0036 67.6543 39.7284 67.6543 39.3892V34.818C67.6543 33.6372 68.0347 32.6644 68.797 31.882C69.5594 31.0996 70.5112 30.7012 71.6698 30.7012C72.8126 30.7012 73.7643 31.0996 74.5267 31.882C75.289 32.6644 75.6694 33.6372 75.6694 34.818V39.3892C75.671 39.7284 75.3972 40.0036 75.0598 40.0036Z" fill="#192020"/>
<path d="M81.2827 40.0026C80.9023 40.0026 80.5601 39.7722 80.4153 39.417L77.2735 31.7226C77.1144 31.3338 77.3993 30.9082 77.8178 30.9082C78.0566 30.9082 78.2698 31.0522 78.3606 31.273L81.289 38.4058L84.1952 31.2906C84.2891 31.0586 84.5135 30.9082 84.7634 30.9082C85.2011 30.9082 85.4987 31.3562 85.33 31.7626L82.1485 39.4218C82.0021 39.7738 81.6615 40.0026 81.2827 40.0026Z" fill="#192020"/>
<path d="M94.9161 37.0188C95.3745 37.0188 95.6657 37.5196 95.4334 37.918C95.1055 38.4844 94.6694 38.9628 94.1267 39.3468C93.3182 39.9212 92.4285 40.2076 91.4449 40.2236C90.2067 40.2396 89.1117 39.7932 88.1599 38.8668C87.2082 37.926 86.7164 36.8252 86.7005 35.5324C86.6686 34.1756 87.1445 32.9964 88.1281 32.022C89.1276 31.0332 90.2863 30.5708 91.6359 30.6492C92.8423 30.7292 93.8896 31.2236 94.7776 32.1484C95.6339 33.0572 96.0636 34.0796 96.0636 35.2124V35.8668H87.9387C88.0342 36.7756 88.4146 37.542 89.0974 38.1324C89.7801 38.7228 90.5727 39.0252 91.4943 39.0092C92.8057 38.9948 93.7702 38.4284 94.3989 37.3212C94.5039 37.1372 94.7013 37.0188 94.9161 37.0188ZM94.8731 34.7532C94.6981 33.9068 94.3018 33.222 93.6827 32.6956C93.0635 32.1692 92.3171 31.8972 91.4449 31.8812C90.5727 31.8652 89.8104 32.1372 89.1594 32.6636C88.5085 33.19 88.1122 33.8924 87.9371 34.7532H94.8731Z" fill="#192020"/>
<path d="M104.515 40.0036C104.177 40.0036 103.904 39.7284 103.904 39.3892V34.69C103.904 33.9236 103.619 33.2692 103.062 32.7108C102.505 32.1524 101.871 31.8804 101.125 31.8804C100.378 31.8804 99.7129 32.1524 99.1575 32.7108C98.602 33.2692 98.3314 33.9236 98.3314 34.69V39.3892C98.3314 39.7284 98.0577 40.0036 97.7203 40.0036C97.3829 40.0036 97.1091 39.7284 97.1091 39.3892V34.818C97.1091 33.6372 97.4895 32.6644 98.2519 31.882C99.0142 31.0996 99.966 30.7012 101.125 30.7012C102.267 30.7012 103.219 31.0996 103.981 31.882C104.744 32.6644 105.124 33.6372 105.124 34.818V39.3892C105.126 39.7284 104.852 40.0036 104.515 40.0036Z" fill="#192020"/>
<path d="M109.697 39.6675C109.697 39.9651 109.444 40.1987 109.149 40.1747C107.31 40.0259 106.396 39.0915 106.396 37.3715V28.3331C106.396 27.9939 106.67 27.7188 107.007 27.7188C107.345 27.7188 107.618 27.9939 107.618 28.3331V30.8931H109.133C109.445 30.8931 109.697 31.1459 109.697 31.4595C109.697 31.7731 109.445 32.0259 109.133 32.0259H107.618V37.1635C107.618 38.3635 108.166 39.0259 109.248 39.1635C109.503 39.1955 109.697 39.4083 109.697 39.6675Z" fill="#192020"/>
<path d="M118.63 38.8548C117.695 39.7956 116.568 40.2596 115.266 40.2116C114.012 40.1796 112.933 39.7012 112.06 38.7764C111.188 37.8516 110.759 36.7508 110.759 35.474C110.759 34.1492 111.234 33.0004 112.172 32.0596C113.108 31.1028 114.235 30.6404 115.536 30.6868C116.791 30.7348 117.87 31.2132 118.742 32.154C119.614 33.0788 120.06 34.1796 120.06 35.4564C120.06 36.7652 119.584 37.898 118.63 38.8548ZM115.282 39.0148C116.281 39.0628 117.123 38.7284 117.822 37.978C118.537 37.2276 118.869 36.3668 118.853 35.362C118.821 34.4052 118.473 33.5908 117.822 32.9044C117.171 32.218 116.394 31.8836 115.473 31.8836C114.505 31.8676 113.695 32.218 113.012 32.9044C112.329 33.5908 111.997 34.4036 111.981 35.378C111.965 36.3348 112.266 37.1812 112.917 37.898C113.568 38.6164 114.346 38.9828 115.282 39.0148Z" fill="#192020"/>
<path d="M121.893 40.0044H121.75C121.438 40.0044 121.186 39.7516 121.186 39.438V31.4764C121.186 31.1628 121.438 30.91 121.75 30.91C122.062 30.91 122.313 31.1628 122.313 31.4764V32.2028C122.568 31.7084 122.948 31.342 123.44 31.07C123.653 30.9596 123.866 30.8748 124.081 30.8188C124.463 30.7196 124.836 31.0028 124.836 31.3996C124.836 31.686 124.642 31.9436 124.361 31.9996C124.013 32.07 123.715 32.2092 123.47 32.4092C123.122 32.6956 122.883 32.9516 122.756 33.1596C122.549 33.51 122.455 33.974 122.455 34.5644V39.438C122.456 39.7516 122.203 40.0044 121.893 40.0044Z" fill="#192020"/>
<path d="M128.764 43.177C128.334 43.177 128.04 42.7418 128.197 42.3386L129.232 39.7146L126.103 31.7514C125.944 31.3466 126.241 30.9082 126.674 30.9082C126.924 30.9082 127.15 31.0618 127.244 31.2954L129.978 38.1194L132.873 31.2666C132.966 31.049 133.177 30.9082 133.413 30.9082C133.831 30.9082 134.115 31.337 133.954 31.7258L129.326 42.8026C129.23 43.0298 129.009 43.177 128.764 43.177Z" fill="#192020"/>
<path d="M87.4612 7.10076C87.9508 7.10076 88.3477 6.70176 88.3477 6.20956C88.3477 5.71736 87.9508 5.31836 87.4612 5.31836C86.9716 5.31836 86.5747 5.71736 86.5747 6.20956C86.5747 6.70176 86.9716 7.10076 87.4612 7.10076Z" fill="#192020"/>
</g>
<defs>
<clipPath id="clip0_1108_8147">
<rect width="134" height="48" fill="white"/>
</clipPath>
</defs>
</svg>
