<svg width="32" height="32" viewBox="0 0 32 32" fill="none" xmlns="http://www.w3.org/2000/svg">
<mask id="mask0_7917_27630" style="mask-type:alpha" maskUnits="userSpaceOnUse" x="0" y="0" width="32" height="32">
<rect width="32" height="32" fill="#D9D9D9"/>
</mask>
<g mask="url(#mask0_7917_27630)">
<path d="M6.14236 14.668L8.90637 11.904C9.09103 11.7193 9.18548 11.4872 9.1897 11.2076C9.19392 10.9283 9.09948 10.692 8.90637 10.4986C8.71325 10.3055 8.47903 10.209 8.2037 10.209C7.92859 10.209 7.69448 10.3055 7.50136 10.4986L4.1757 13.8243C3.93459 14.0654 3.81403 14.3466 3.81403 14.668C3.81403 14.9893 3.93459 15.2705 4.1757 15.5116L7.50136 18.8373C7.68603 19.0217 7.91803 19.1162 8.19736 19.1206C8.47692 19.1249 8.71325 19.0304 8.90637 18.8373C9.09948 18.644 9.19603 18.4097 9.19603 18.1346C9.19603 17.8595 9.09948 17.6253 8.90637 17.432L6.14236 14.668ZM25.855 14.668L23.091 17.432C22.9064 17.6166 22.8119 17.8487 22.8077 18.1283C22.8035 18.4076 22.8979 18.644 23.091 18.8373C23.2841 19.0304 23.5184 19.127 23.7937 19.127C24.0688 19.127 24.3029 19.0304 24.496 18.8373L27.8217 15.5116C28.0628 15.2705 28.1834 14.9893 28.1834 14.668C28.1834 14.3466 28.0628 14.0654 27.8217 13.8243L24.496 10.4986C24.3114 10.3142 24.0794 10.2197 23.8 10.2153C23.5205 10.2111 23.2841 10.3055 23.091 10.4986C22.8979 10.692 22.8014 10.9262 22.8014 11.2013C22.8014 11.4764 22.8979 11.7106 23.091 11.904L25.855 14.668ZM3.33203 8.5143V7.0783C3.33203 6.40475 3.56536 5.83464 4.03203 5.36797C4.4987 4.9013 5.06881 4.66797 5.74236 4.66797H26.255C26.9286 4.66797 27.4987 4.9013 27.9654 5.36797C28.432 5.83464 28.6654 6.40475 28.6654 7.0783V8.5143C28.6654 8.79786 28.5696 9.03541 28.378 9.22697C28.1867 9.41852 27.9491 9.5143 27.6654 9.5143C27.3816 9.5143 27.144 9.41852 26.9527 9.22697C26.7611 9.03541 26.6654 8.79786 26.6654 8.5143V7.0783C26.6654 6.95852 26.6269 6.86019 26.55 6.7833C26.4731 6.70641 26.3748 6.66797 26.255 6.66797H5.74236C5.62259 6.66797 5.52425 6.70641 5.44736 6.7833C5.37048 6.86019 5.33203 6.95852 5.33203 7.0783V8.5143C5.33203 8.79786 5.23625 9.03541 5.0447 9.22697C4.85336 9.41852 4.61581 9.5143 4.33203 9.5143C4.04825 9.5143 3.8107 9.41852 3.61936 9.22697C3.42781 9.03541 3.33203 8.79786 3.33203 8.5143ZM12.5374 27.3346C12.1936 27.3346 11.9068 27.2196 11.677 26.9896C11.447 26.7599 11.332 26.4731 11.332 26.1293V24.668H5.74236C5.06881 24.668 4.4987 24.4346 4.03203 23.968C3.56536 23.5013 3.33203 22.9312 3.33203 22.2576V20.8423C3.33203 20.5585 3.42781 20.3243 3.61936 20.1396C3.8107 19.9552 4.04825 19.863 4.33203 19.863C4.61581 19.863 4.85336 19.9586 5.0447 20.15C5.23625 20.3415 5.33203 20.5791 5.33203 20.8626V22.2576C5.33203 22.3774 5.37048 22.4757 5.44736 22.5526C5.52425 22.6295 5.62259 22.668 5.74236 22.668H26.255C26.3748 22.668 26.4731 22.6295 26.55 22.5526C26.6269 22.4757 26.6654 22.3774 26.6654 22.2576V20.8423C26.6654 20.5585 26.7611 20.3243 26.9527 20.1396C27.144 19.9552 27.3816 19.863 27.6654 19.863C27.9491 19.863 28.1867 19.9586 28.378 20.15C28.5696 20.3415 28.6654 20.5791 28.6654 20.8626V22.2576C28.6654 22.9312 28.432 23.5013 27.9654 23.968C27.4987 24.4346 26.9286 24.668 26.255 24.668H20.6654V26.1293C20.6654 26.4731 20.5504 26.7599 20.3204 26.9896C20.0906 27.2196 19.8038 27.3346 19.46 27.3346H12.5374Z" fill="#1C1B1F"/>
</g>
</svg>
