<svg width="32" height="32" viewBox="0 0 32 32" fill="none" xmlns="http://www.w3.org/2000/svg">
<mask id="mask0_7917_27678" style="mask-type:alpha" maskUnits="userSpaceOnUse" x="0" y="0" width="32" height="32">
<rect width="32" height="32" fill="#D9D9D9"/>
</mask>
<g mask="url(#mask0_7917_27678)">
<path d="M13.7793 19.3333L11.6563 17.2103C11.4581 17.0121 11.2261 16.9108 10.9603 16.9063C10.6946 16.9021 10.4582 17.0034 10.2513 17.2103C10.0444 17.4172 9.941 17.6548 9.941 17.923C9.941 18.1914 10.0444 18.4291 10.2513 18.636L12.9563 21.3617C13.1974 21.6026 13.4787 21.723 13.8 21.723C14.1213 21.723 14.4026 21.6026 14.6437 21.3617L20.1487 15.8563C20.3469 15.6581 20.4482 15.4192 20.4527 15.1397C20.4569 14.8603 20.3556 14.6172 20.1487 14.4103C19.9418 14.2034 19.7008 14.1 19.4257 14.1C19.1506 14.1 18.9096 14.2034 18.7027 14.4103L13.7793 19.3333ZM8.66667 26C6.824 26 5.25222 25.3598 3.95133 24.0793C2.65044 22.7991 2 21.2377 2 19.395C2 17.7641 2.52222 16.3137 3.56667 15.0437C4.61111 13.7734 5.94356 13.0221 7.564 12.7897C7.99133 10.7966 8.99356 9.16667 10.5707 7.9C12.1476 6.63333 13.9573 6 16 6C18.412 6 20.4594 6.84144 22.1423 8.52433C23.8252 10.2072 24.6667 12.2547 24.6667 14.6667V15.3333H25.077C26.4821 15.4427 27.6539 16.0077 28.5923 17.0283C29.5308 18.0488 30 19.2616 30 20.6667C30 22.1538 29.4829 23.4144 28.4487 24.4487C27.4144 25.4829 26.1538 26 24.6667 26H8.66667ZM8.66667 24H24.6667C25.6 24 26.3889 23.6778 27.0333 23.0333C27.6778 22.3889 28 21.6 28 20.6667C28 19.7333 27.6778 18.9444 27.0333 18.3C26.3889 17.6556 25.6 17.3333 24.6667 17.3333H22.6667V14.6667C22.6667 12.8222 22.0167 11.25 20.7167 9.95C19.4167 8.65 17.8444 8 16 8C14.1556 8 12.5833 8.65 11.2833 9.95C9.98333 11.25 9.33333 12.8222 9.33333 14.6667H8.66667C7.37778 14.6667 6.27778 15.1222 5.36667 16.0333C4.45556 16.9444 4 18.0444 4 19.3333C4 20.6222 4.45556 21.7222 5.36667 22.6333C6.27778 23.5444 7.37778 24 8.66667 24Z" fill="#1C1B1F"/>
</g>
</svg>
