<svg width="32" height="32" viewBox="0 0 32 32" fill="none" xmlns="http://www.w3.org/2000/svg">
<mask id="mask0_7917_27714" style="mask-type:alpha" maskUnits="userSpaceOnUse" x="0" y="0" width="32" height="32">
<rect width="32" height="32" fill="#D9D9D9"/>
</mask>
<g mask="url(#mask0_7917_27714)">
<path d="M9.33333 23.3346C7.29622 23.3346 5.56478 22.622 4.139 21.1966C2.713 19.7713 2 18.0405 2 16.0043C2 13.9681 2.713 12.2363 4.139 10.809C5.56478 9.38163 7.29622 8.66797 9.33333 8.66797C10.7144 8.66797 11.9948 9.03464 13.1743 9.76797C14.3539 10.5013 15.2479 11.468 15.8563 12.668H27.5897C28.2526 12.668 28.82 12.904 29.292 13.376C29.764 13.848 30 14.4154 30 15.0783V16.9243C30 17.5872 29.764 18.1546 29.292 18.6266C28.82 19.0986 28.2526 19.3346 27.5897 19.3346H27.3333V20.9243C27.3333 21.5872 27.0973 22.1546 26.6253 22.6266C26.1533 23.0986 25.5859 23.3346 24.923 23.3346H23.077C22.4141 23.3346 21.8467 23.0986 21.3747 22.6266C20.9027 22.1546 20.6667 21.5872 20.6667 20.9243V19.3346H15.8563C15.2479 20.5346 14.3539 21.5013 13.1743 22.2346C11.9948 22.968 10.7144 23.3346 9.33333 23.3346ZM9.33333 21.3346C10.8 21.3346 11.9778 20.8846 12.8667 19.9846C13.7556 19.0846 14.2889 18.2013 14.4667 17.3346H22.6667V20.9243C22.6667 21.0441 22.7051 21.1424 22.782 21.2193C22.8589 21.2962 22.9572 21.3346 23.077 21.3346H24.923C25.0428 21.3346 25.1411 21.2962 25.218 21.2193C25.2949 21.1424 25.3333 21.0441 25.3333 20.9243V17.3346H27.5897C27.7094 17.3346 27.8078 17.2962 27.8847 17.2193C27.9616 17.1424 28 17.0441 28 16.9243V15.0783C28 14.9585 27.9616 14.8602 27.8847 14.7833C27.8078 14.7064 27.7094 14.668 27.5897 14.668H14.4667C14.2889 13.8013 13.7556 12.918 12.8667 12.018C11.9778 11.118 10.8 10.668 9.33333 10.668C7.86667 10.668 6.61111 11.1902 5.56667 12.2346C4.52222 13.2791 4 14.5346 4 16.0013C4 17.468 4.52222 18.7235 5.56667 19.768C6.61111 20.8124 7.86667 21.3346 9.33333 21.3346ZM9.33333 18.155C9.92556 18.155 10.4326 17.9441 10.8543 17.5223C11.2761 17.1005 11.487 16.5935 11.487 16.0013C11.487 15.4091 11.2761 14.9021 10.8543 14.4803C10.4326 14.0585 9.92556 13.8476 9.33333 13.8476C8.74111 13.8476 8.23411 14.0585 7.81233 14.4803C7.39056 14.9021 7.17967 15.4091 7.17967 16.0013C7.17967 16.5935 7.39056 17.1005 7.81233 17.5223C8.23411 17.9441 8.74111 18.155 9.33333 18.155Z" fill="#1C1B1F"/>
</g>
</svg>
