<svg width="32" height="32" viewBox="0 0 32 32" fill="none" xmlns="http://www.w3.org/2000/svg">
<mask id="mask0_7917_27726" style="mask-type:alpha" maskUnits="userSpaceOnUse" x="0" y="0" width="32" height="32">
<rect width="32" height="32" fill="#D9D9D9"/>
</mask>
<g mask="url(#mask0_7917_27726)">
<path d="M11.3396 16L13.504 13.836C13.7022 13.6376 13.8 13.4054 13.7973 13.1397C13.7949 12.8739 13.6971 12.6376 13.504 12.4307C13.2971 12.224 13.0594 12.1172 12.791 12.1103C12.5227 12.1034 12.2852 12.2034 12.0783 12.4103L9.33197 15.1563C9.09108 15.3974 8.97063 15.6787 8.97063 16C8.97063 16.3213 9.09108 16.6026 9.33197 16.8437L12.0783 19.5897C12.2765 19.7879 12.512 19.8858 12.7846 19.8833C13.0573 19.8807 13.2971 19.776 13.504 19.5693C13.6971 19.3624 13.7971 19.1282 13.804 18.8667C13.8106 18.6051 13.7106 18.3709 13.504 18.164L11.3396 16ZM20.663 16L18.4986 18.164C18.3004 18.3624 18.2026 18.5946 18.2053 18.8603C18.2077 19.1261 18.3055 19.3624 18.4986 19.5693C18.7055 19.776 18.9432 19.8828 19.2116 19.8897C19.4799 19.8966 19.7174 19.7966 19.9243 19.5897L22.6706 16.8437C22.9115 16.6026 23.032 16.3213 23.032 16C23.032 15.6787 22.9115 15.3974 22.6706 15.1563L19.9243 12.4103C19.7261 12.2121 19.4906 12.1142 19.218 12.1167C18.9453 12.1193 18.7055 12.224 18.4986 12.4307C18.3055 12.6376 18.2055 12.8718 18.1986 13.1333C18.192 13.3949 18.292 13.6291 18.4986 13.836L20.663 16ZM7.0783 27.3333C6.41341 27.3333 5.84541 27.0979 5.3743 26.627C4.90341 26.1559 4.66797 25.5879 4.66797 24.923V7.077C4.66797 6.41211 4.90341 5.84411 5.3743 5.373C5.84541 4.90211 6.41341 4.66667 7.0783 4.66667H13.0116C13.0954 3.92644 13.4185 3.297 13.981 2.77833C14.5432 2.25944 15.2166 2 16.0013 2C16.7944 2 17.4722 2.25944 18.0346 2.77833C18.5971 3.297 18.9159 3.92644 18.991 4.66667H24.9243C25.5892 4.66667 26.1572 4.90211 26.6283 5.373C27.0992 5.84411 27.3346 6.41211 27.3346 7.077V24.923C27.3346 25.5879 27.0992 26.1559 26.6283 26.627C26.1572 27.0979 25.5892 27.3333 24.9243 27.3333H7.0783ZM7.0783 25.3333H24.9243C25.027 25.3333 25.121 25.2906 25.2063 25.205C25.2919 25.1197 25.3346 25.0257 25.3346 24.923V7.077C25.3346 6.97433 25.2919 6.88033 25.2063 6.795C25.121 6.70944 25.027 6.66667 24.9243 6.66667H7.0783C6.97564 6.66667 6.88164 6.70944 6.7963 6.795C6.71075 6.88033 6.66797 6.97433 6.66797 7.077V24.923C6.66797 25.0257 6.71075 25.1197 6.7963 25.205C6.88164 25.2906 6.97564 25.3333 7.0783 25.3333ZM16.0013 5.795C16.2902 5.795 16.5291 5.70056 16.718 5.51167C16.9069 5.32278 17.0013 5.08389 17.0013 4.795C17.0013 4.50611 16.9069 4.26722 16.718 4.07833C16.5291 3.88944 16.2902 3.795 16.0013 3.795C15.7124 3.795 15.4735 3.88944 15.2846 4.07833C15.0957 4.26722 15.0013 4.50611 15.0013 4.795C15.0013 5.08389 15.0957 5.32278 15.2846 5.51167C15.4735 5.70056 15.7124 5.795 16.0013 5.795Z" fill="#1C1B1F"/>
</g>
</svg>
