<svg width="32" height="32" viewBox="0 0 32 32" fill="none" xmlns="http://www.w3.org/2000/svg">
<mask id="mask0_7917_27783" style="mask-type:alpha" maskUnits="userSpaceOnUse" x="0" y="0" width="32" height="32">
<rect width="32" height="32" fill="#D9D9D9"/>
</mask>
<g mask="url(#mask0_7917_27783)">
<path d="M7.13333 28.6663V15.9356H9.13333V26.6663H18.8V20.374L22.1973 16.9636C22.8676 16.2936 23.3868 15.5351 23.755 14.688C24.1234 13.8411 24.3077 12.945 24.3077 11.9996C24.3077 11.0681 24.1222 10.1808 23.7513 9.33796C23.3804 8.49529 22.8668 7.73896 22.2103 7.06896L21.1333 5.95863L16.759 10.333H11.759L9.99233 12.0996L8.56667 10.7073L10.941 8.33296H15.941L21.1333 3.14062L23.636 5.63029C24.4907 6.48518 25.1474 7.45662 25.6063 8.54462C26.0654 9.63262 26.2992 10.7843 26.3077 11.9996C26.2992 13.215 26.0654 14.3666 25.6063 15.4546C25.1474 16.5426 24.4907 17.5141 23.636 18.369L20.8 21.192V28.6663H7.13333ZM13.354 22.6123L6.664 15.9356C6.44533 15.7167 6.28 15.462 6.168 15.1713C6.056 14.8808 6 14.5792 6 14.2663C6 13.9534 6.056 13.6573 6.168 13.378C6.28 13.0984 6.44533 12.8492 6.664 12.6303L9.23333 10.0406L13.136 13.897C13.7324 14.4936 14.1901 15.1762 14.509 15.9446C14.8279 16.7128 14.9873 17.5201 14.9873 18.3663C14.9873 19.1525 14.8506 19.9085 14.577 20.6343C14.3034 21.3598 13.8958 22.0192 13.354 22.6123Z" fill="#1C1B1F"/>
</g>
</svg>
