<svg width="32" height="32" viewBox="0 0 32 32" fill="none" xmlns="http://www.w3.org/2000/svg">
<mask id="mask0_7917_27738" style="mask-type:alpha" maskUnits="userSpaceOnUse" x="0" y="0" width="32" height="32">
<rect width="32" height="32" fill="#D9D9D9"/>
</mask>
<g mask="url(#mask0_7917_27738)">
<path d="M16.0013 28.768C15.3277 28.768 14.747 28.5347 14.259 28.068C13.771 27.6014 13.5056 27.0313 13.463 26.3577H18.5396C18.497 27.0313 18.2316 27.6014 17.7436 28.068C17.2556 28.5347 16.6749 28.768 16.0013 28.768ZM12.0013 24.5114C11.7175 24.5114 11.48 24.4157 11.2886 24.2244C11.0971 24.0328 11.0013 23.7951 11.0013 23.5114C11.0013 23.2276 11.0971 22.99 11.2886 22.7987C11.48 22.6071 11.7175 22.5114 12.0013 22.5114H20.0013C20.2851 22.5114 20.5226 22.6071 20.714 22.7987C20.9055 22.99 21.0013 23.2276 21.0013 23.5114C21.0013 23.7951 20.9055 24.0328 20.714 24.2244C20.5226 24.4157 20.2851 24.5114 20.0013 24.5114H12.0013ZM11.2063 20.6654C9.80986 19.7969 8.70441 18.6623 7.88997 17.2614C7.0753 15.8607 6.66797 14.3287 6.66797 12.6654C6.66797 10.0671 7.57397 7.86203 9.38597 6.05003C11.198 4.23803 13.4031 3.33203 16.0013 3.33203C18.5995 3.33203 20.8046 4.23803 22.6166 6.05003C24.4286 7.86203 25.3346 10.0671 25.3346 12.6654C25.3346 14.3287 24.9273 15.8607 24.1126 17.2614C23.2982 18.6623 22.1927 19.7969 20.7963 20.6654H11.2063ZM11.8013 18.6654H20.2013C21.2013 17.9543 21.9735 17.0765 22.518 16.032C23.0624 14.9876 23.3346 13.8654 23.3346 12.6654C23.3346 10.6209 22.6235 8.88759 21.2013 7.46537C19.7791 6.04314 18.0457 5.33203 16.0013 5.33203C13.9569 5.33203 12.2235 6.04314 10.8013 7.46537C9.37908 8.88759 8.66797 10.6209 8.66797 12.6654C8.66797 13.8654 8.94019 14.9876 9.48464 16.032C10.0291 17.0765 10.8013 17.9543 11.8013 18.6654Z" fill="#1C1B1F"/>
</g>
</svg>
