<svg width="32" height="32" viewBox="0 0 32 32" fill="none" xmlns="http://www.w3.org/2000/svg">
<mask id="mask0_7917_27750" style="mask-type:alpha" maskUnits="userSpaceOnUse" x="0" y="0" width="32" height="32">
<rect width="32" height="32" fill="#D9D9D9"/>
</mask>
<g mask="url(#mask0_7917_27750)">
<path d="M15.705 17.127H21.4203C21.9212 17.127 22.3461 16.9526 22.695 16.6037C23.0437 16.255 23.218 15.8303 23.218 15.3294C23.218 14.8287 23.0437 14.3984 22.695 14.0384C22.3461 13.6786 21.9212 13.4987 21.4203 13.4987H21.0203L20.9693 13.178C20.8751 12.5269 20.5807 11.9796 20.086 11.536C19.5911 11.0923 19.0069 10.8704 18.3333 10.8704C17.7982 10.8704 17.3188 11.0097 16.895 11.2884C16.471 11.567 16.1453 11.9406 15.918 12.409L15.8153 12.614L15.5717 12.627C14.9734 12.6715 14.4701 12.9048 14.0617 13.327C13.653 13.7493 13.4487 14.2637 13.4487 14.8704C13.4487 15.4773 13.6662 16.005 14.1013 16.4537C14.5362 16.9026 15.0708 17.127 15.705 17.127ZM4.41033 27.178C3.73678 27.178 3.16667 26.9447 2.7 26.478C2.23333 26.0114 2 25.4414 2 24.768V10.3834C2 10.0996 2.09578 9.86203 2.28733 9.6707C2.47867 9.47914 2.71622 9.38336 3 9.38336C3.28378 9.38336 3.52133 9.47914 3.71267 9.6707C3.90422 9.86203 4 10.0996 4 10.3834V24.768C4 24.8705 4.04278 24.9645 4.12833 25.05C4.21367 25.1354 4.30767 25.178 4.41033 25.178H25.0257C25.3094 25.178 25.547 25.2738 25.7383 25.4654C25.9299 25.6567 26.0257 25.8943 26.0257 26.178C26.0257 26.4618 25.9299 26.6995 25.7383 26.891C25.547 27.0824 25.3094 27.178 25.0257 27.178H4.41033ZM9.077 22.5114C8.40344 22.5114 7.83333 22.278 7.36667 21.8114C6.9 21.3447 6.66667 20.7747 6.66667 20.1014V5.74236C6.66667 5.06881 6.9 4.4987 7.36667 4.03203C7.83333 3.56536 8.40344 3.33203 9.077 3.33203H15.0027C15.324 3.33203 15.6329 3.39448 15.9293 3.51936C16.226 3.64403 16.4838 3.81581 16.7027 4.0347L18.1537 5.48603H27.5897C28.2632 5.48603 28.8333 5.71936 29.3 6.18603C29.7667 6.6527 30 7.2227 30 7.89603V20.1014C30 20.7747 29.7667 21.3447 29.3 21.8114C28.8333 22.278 28.2632 22.5114 27.5897 22.5114H9.077ZM9.077 20.5117H27.5897C27.6923 20.5117 27.7863 20.4689 27.8717 20.3834C27.9572 20.2978 28 20.2038 28 20.1014V7.89603C28 7.79359 27.9572 7.69959 27.8717 7.61403C27.7863 7.52848 27.6923 7.4857 27.5897 7.4857H17.323L15.1693 5.33203H9.077C8.95722 5.33203 8.85889 5.37048 8.782 5.44737C8.70511 5.52425 8.66667 5.62259 8.66667 5.74236V20.1014C8.66667 20.2038 8.70933 20.2978 8.79467 20.3834C8.88022 20.4689 8.97433 20.5117 9.077 20.5117Z" fill="#1C1B1F"/>
</g>
</svg>
