<svg width="32" height="32" viewBox="0 0 32 32" fill="none" xmlns="http://www.w3.org/2000/svg">
<mask id="mask0_7917_27762" style="mask-type:alpha" maskUnits="userSpaceOnUse" x="0" y="0" width="32" height="32">
<rect width="32" height="32" fill="#D9D9D9"/>
</mask>
<g mask="url(#mask0_7917_27762)">
<path d="M14.9987 27.6654V17.7217C14.6843 17.5286 14.4389 17.2867 14.2627 16.996C14.0867 16.7056 13.9987 16.3731 13.9987 15.9987C13.9987 15.4534 14.1957 14.9837 14.5897 14.5897C14.9837 14.1957 15.4534 13.9987 15.9987 13.9987C16.544 13.9987 17.0137 14.1957 17.4077 14.5897C17.8017 14.9837 17.9987 15.4534 17.9987 15.9987C17.9987 16.3731 17.9107 16.709 17.7347 17.0064C17.5585 17.3037 17.3131 17.5421 16.9987 17.7217V27.6654C16.9987 27.9491 16.9029 28.1867 16.7114 28.378C16.52 28.5696 16.2825 28.6654 15.9987 28.6654C15.7149 28.6654 15.4774 28.5696 15.286 28.378C15.0945 28.1867 14.9987 27.9491 14.9987 27.6654ZM7.99603 24.468C7.78936 24.6747 7.54414 24.7738 7.26037 24.7654C6.97659 24.7567 6.73814 24.6421 6.54503 24.4217C5.54503 23.2866 4.75948 22.0071 4.18836 20.5834C3.61748 19.1594 3.33203 17.6311 3.33203 15.9987C3.33203 14.2483 3.66492 12.6026 4.3307 11.0617C4.99648 9.52059 5.89948 8.17992 7.0397 7.0397C8.17992 5.89948 9.52059 4.99648 11.0617 4.3307C12.6026 3.66492 14.2483 3.33203 15.9987 3.33203C17.7491 3.33203 19.3948 3.66492 20.9357 4.3307C22.4768 4.99648 23.8175 5.89948 24.9577 7.0397C26.0979 8.17992 27.0009 9.52059 27.6667 11.0617C28.3325 12.6026 28.6654 14.2483 28.6654 15.9987C28.6654 17.6227 28.3799 19.1488 27.809 20.577C27.2379 22.005 26.4524 23.2866 25.4524 24.4217C25.2593 24.6421 25.0243 24.7601 24.7474 24.7757C24.4705 24.791 24.2286 24.6953 24.0217 24.4884C23.8286 24.2953 23.7385 24.0547 23.7514 23.7667C23.764 23.4787 23.867 23.2244 24.0604 23.0037C24.8757 22.0619 25.5137 20.9961 25.9744 19.8064C26.435 18.6166 26.6654 17.3474 26.6654 15.9987C26.6654 13.0209 25.632 10.4987 23.5654 8.43203C21.4987 6.36536 18.9765 5.33203 15.9987 5.33203C13.0209 5.33203 10.4987 6.36536 8.43203 8.43203C6.36536 10.4987 5.33203 13.0209 5.33203 15.9987C5.33203 17.3474 5.56025 18.6131 6.0167 19.796C6.47314 20.9789 7.12014 22.0414 7.9577 22.9834C8.15081 23.2038 8.25725 23.4547 8.27703 23.736C8.29659 24.0171 8.20292 24.2611 7.99603 24.468ZM11.7627 20.7014C11.556 20.908 11.3129 21.0127 11.0334 21.0154C10.7538 21.0178 10.5244 20.902 10.345 20.668C9.82525 20.0218 9.41536 19.3068 9.11537 18.523C8.81536 17.7393 8.66536 16.8978 8.66536 15.9987C8.66536 13.9645 9.37903 12.2337 10.8064 10.8064C12.2337 9.37903 13.9645 8.66536 15.9987 8.66536C18.0329 8.66536 19.7637 9.37903 21.191 10.8064C22.6184 12.2337 23.332 13.9645 23.332 15.9987C23.332 16.8894 23.182 17.7321 22.882 18.527C22.582 19.3217 22.1721 20.0354 21.6524 20.668C21.473 20.8885 21.2436 21.0043 20.964 21.0154C20.6845 21.0265 20.4414 20.9286 20.2347 20.7217C20.0414 20.5286 19.9435 20.2945 19.941 20.0194C19.9384 19.744 20.0226 19.4893 20.1937 19.255C20.5424 18.7935 20.8193 18.2893 21.0244 17.7424C21.2295 17.1953 21.332 16.614 21.332 15.9987C21.332 14.532 20.8098 13.2765 19.7654 12.232C18.7209 11.1876 17.4654 10.6654 15.9987 10.6654C14.532 10.6654 13.2765 11.1876 12.232 12.232C11.1876 13.2765 10.6654 14.532 10.6654 15.9987C10.6654 16.6278 10.7679 17.2125 10.973 17.7527C11.1781 18.2927 11.455 18.7935 11.8037 19.255C11.9748 19.4893 12.059 19.7406 12.0564 20.009C12.0539 20.2773 11.956 20.508 11.7627 20.7014Z" fill="#1C1B1F"/>
</g>
</svg>
