<svg width="32" height="32" viewBox="0 0 32 32" fill="none" xmlns="http://www.w3.org/2000/svg">
<mask id="mask0_7917_27690" style="mask-type:alpha" maskUnits="userSpaceOnUse" x="0" y="0" width="32" height="32">
<rect width="32" height="32" fill="#D9D9D9"/>
</mask>
<g mask="url(#mask0_7917_27690)">
<path d="M15.9987 22.2987C18.1903 20.4525 19.8493 18.6687 20.9757 16.9474C22.1021 15.226 22.6654 13.6133 22.6654 12.109C22.6654 10.1261 22.0431 8.50092 20.7987 7.23336C19.5543 5.96581 17.9543 5.33203 15.9987 5.33203C14.0431 5.33203 12.4431 5.96581 11.1987 7.23336C9.95425 8.50092 9.33203 10.1261 9.33203 12.109C9.33203 13.6133 9.89525 15.226 11.0217 16.9474C12.1481 18.6687 13.8071 20.4525 15.9987 22.2987ZM15.9987 24.2114C15.7491 24.2114 15.5031 24.1691 15.2607 24.0847C15.018 24 14.7957 23.873 14.5937 23.7037C12.1766 21.6748 10.362 19.6894 9.15003 17.7474C7.93803 15.8056 7.33203 13.9261 7.33203 12.109C7.33203 9.54481 8.13892 7.44092 9.7527 5.79737C11.3663 4.15381 13.4483 3.33203 15.9987 3.33203C18.5491 3.33203 20.6311 4.15381 22.2447 5.79737C23.8585 7.44092 24.6654 9.54481 24.6654 12.109C24.6654 13.9261 24.0594 15.8035 22.8474 17.741C21.6354 19.6786 19.8207 21.6643 17.4034 23.698C17.1985 23.8711 16.9756 24 16.7347 24.0847C16.4936 24.1691 16.2483 24.2114 15.9987 24.2114ZM16.001 14.409C16.6644 14.409 17.2315 14.1728 17.7024 13.7004C18.1735 13.2279 18.409 12.6599 18.409 11.9964C18.409 11.333 18.1728 10.7659 17.7004 10.295C17.2279 9.82392 16.6599 9.58837 15.9964 9.58837C15.333 9.58837 14.7659 9.82459 14.295 10.297C13.8239 10.7695 13.5884 11.3375 13.5884 12.001C13.5884 12.6644 13.8246 13.2315 14.297 13.7024C14.7695 14.1735 15.3375 14.409 16.001 14.409ZM8.33203 28.6654C8.0487 28.6654 7.81125 28.5695 7.6197 28.3777C7.42792 28.1859 7.33203 27.9484 7.33203 27.665C7.33203 27.3815 7.42792 27.144 7.6197 26.9527C7.81125 26.7611 8.0487 26.6654 8.33203 26.6654H23.6654C23.9487 26.6654 24.1861 26.7613 24.3777 26.953C24.5695 27.1448 24.6654 27.3824 24.6654 27.6657C24.6654 27.9493 24.5695 28.1867 24.3777 28.378C24.1861 28.5696 23.9487 28.6654 23.6654 28.6654H8.33203Z" fill="#1C1B1F"/>
</g>
</svg>
