<svg width="32" height="32" viewBox="0 0 32 32" fill="none" xmlns="http://www.w3.org/2000/svg">
<mask id="mask0_7917_27642" style="mask-type:alpha" maskUnits="userSpaceOnUse" x="0" y="0" width="32" height="32">
<rect width="32" height="32" fill="#D9D9D9"/>
</mask>
<g mask="url(#mask0_7917_27642)">
<path d="M14.5249 28.6654C14.0703 28.6654 13.6776 28.5145 13.3469 28.2127C13.0161 27.9111 12.8147 27.5398 12.7429 27.0987L12.4173 24.6037C12.0602 24.4841 11.6939 24.3167 11.3186 24.1014C10.9435 23.8858 10.6081 23.655 10.3123 23.409L8.00195 24.391C7.58306 24.5757 7.16217 24.5936 6.73928 24.4447C6.31617 24.296 5.9875 24.026 5.75328 23.6347L4.25061 21.0294C4.01639 20.638 3.94895 20.2239 4.04828 19.787C4.14739 19.3504 4.37472 18.9901 4.73028 18.7064L6.72761 17.2064C6.69695 17.0081 6.67517 16.809 6.66228 16.609C6.64939 16.409 6.64295 16.2098 6.64295 16.0114C6.64295 15.8218 6.64939 15.6291 6.66228 15.4334C6.67517 15.2376 6.69695 15.0235 6.72761 14.791L4.73028 13.291C4.37472 13.0073 4.1495 12.6448 4.05461 12.2037C3.95972 11.7628 4.02939 11.3466 4.26361 10.955L5.75328 8.38836C5.9875 8.00548 6.31617 7.73759 6.73928 7.5847C7.16217 7.43159 7.58306 7.44736 8.00195 7.63203L10.2993 8.60137C10.6208 8.3467 10.9641 8.11381 11.3289 7.9027C11.6938 7.69159 12.0524 7.52192 12.4046 7.3937L12.7429 4.8987C12.8147 4.45759 13.0161 4.08625 13.3469 3.7847C13.6776 3.48292 14.0703 3.33203 14.5249 3.33203H17.4789C17.9336 3.33203 18.3263 3.48292 18.6569 3.7847C18.9878 4.08625 19.1892 4.45759 19.2609 4.8987L19.5866 7.40636C19.9866 7.5517 20.3485 7.72136 20.6723 7.91536C20.9963 8.10936 21.3233 8.33803 21.6533 8.60137L24.0149 7.63203C24.4336 7.44736 24.8545 7.43159 25.2776 7.5847C25.7007 7.73759 26.0293 8.00548 26.2633 8.38836L27.7533 10.968C27.9875 11.3594 28.0549 11.7735 27.9556 12.2104C27.8565 12.647 27.6292 13.0073 27.2736 13.291L25.2249 14.8294C25.2727 15.0447 25.2988 15.246 25.3033 15.4334C25.3075 15.6205 25.3096 15.8089 25.3096 15.9987C25.3096 16.1798 25.3053 16.364 25.2966 16.5514C25.2882 16.7385 25.2575 16.9526 25.2046 17.1937L27.2146 18.7064C27.5702 18.9901 27.7997 19.3504 27.9033 19.787C28.0066 20.2239 27.9412 20.638 27.7069 21.0294L26.1966 23.6217C25.9626 24.0133 25.6319 24.2834 25.2046 24.432C24.7773 24.5807 24.3542 24.5627 23.9353 24.378L21.6533 23.396C21.3233 23.6594 20.9865 23.8923 20.6429 24.0947C20.2994 24.2974 19.9473 24.4628 19.5866 24.591L19.2609 27.0987C19.1892 27.5398 18.9878 27.9111 18.6569 28.2127C18.3263 28.5145 17.9336 28.6654 17.4789 28.6654H14.5249ZM14.6686 26.6654H17.2893L17.7686 23.0937C18.4491 22.9159 19.0708 22.6634 19.6339 22.336C20.1973 22.0085 20.7405 21.5875 21.2636 21.073L24.5763 22.4654L25.8893 20.1987L22.9969 18.0194C23.1081 17.674 23.1836 17.3355 23.2236 17.0037C23.2638 16.6721 23.2839 16.3371 23.2839 15.9987C23.2839 15.6516 23.2638 15.3166 23.2236 14.9937C23.1836 14.6706 23.1081 14.3406 22.9969 14.0037L25.9146 11.7987L24.6019 9.53203L21.2506 10.9447C20.8044 10.4678 20.2698 10.0465 19.6469 9.6807C19.0238 9.31492 18.3935 9.05592 17.7559 8.9037L17.3353 5.33203H14.6893L14.2479 8.89103C13.5677 9.0517 12.9396 9.29781 12.3636 9.62936C11.7874 9.96114 11.2377 10.3885 10.7146 10.9114L7.40195 9.53203L6.08928 11.7987L8.96861 13.9447C8.8575 14.2611 8.77972 14.5903 8.73528 14.932C8.69083 15.2738 8.66861 15.6336 8.66861 16.0114C8.66861 16.3585 8.69083 16.6987 8.73528 17.032C8.77972 17.3654 8.85328 17.6945 8.95595 18.0194L6.08928 20.1987L7.40195 22.4654L10.7019 21.0654C11.2079 21.5849 11.7489 22.0106 12.3249 22.3424C12.9012 22.6739 13.5379 22.9286 14.2353 23.1064L14.6686 26.6654ZM16.0173 19.9987C17.1266 19.9987 18.0706 19.6094 18.8493 18.8307C19.6279 18.052 20.0173 17.108 20.0173 15.9987C20.0173 14.8894 19.6279 13.9454 18.8493 13.1667C18.0706 12.388 17.1266 11.9987 16.0173 11.9987C14.8942 11.9987 13.9467 12.388 13.1749 13.1667C12.4032 13.9454 12.0173 14.8894 12.0173 15.9987C12.0173 17.108 12.4032 18.052 13.1749 18.8307C13.9467 19.6094 14.8942 19.9987 16.0173 19.9987Z" fill="#1C1B1F"/>
</g>
</svg>
