<svg width="32" height="32" viewBox="0 0 32 32" fill="none" xmlns="http://www.w3.org/2000/svg">
<mask id="mask0_7917_27702" style="mask-type:alpha" maskUnits="userSpaceOnUse" x="0" y="0" width="32" height="32">
<rect width="32" height="32" fill="#D9D9D9"/>
</mask>
<g mask="url(#mask0_7917_27702)">
<path d="M11.0777 30C10.4128 30 9.84478 29.7646 9.37367 29.2937C8.90278 28.8226 8.66733 28.2546 8.66733 27.5897V23.718C8.66733 23.4342 8.76311 23.1966 8.95467 23.005C9.146 22.8137 9.38356 22.718 9.66733 22.718C9.95111 22.718 10.1887 22.8137 10.38 23.005C10.5716 23.1966 10.6673 23.4342 10.6673 23.718V24.3333H24.0007V7.66667H10.6673V8.282C10.6673 8.56578 10.5716 8.80344 10.38 8.995C10.1887 9.18633 9.95111 9.282 9.66733 9.282C9.38356 9.282 9.146 9.18633 8.95467 8.995C8.76311 8.80344 8.66733 8.56578 8.66733 8.282V4.41033C8.66733 3.74544 8.90278 3.17744 9.37367 2.70633C9.84478 2.23544 10.4128 2 11.0777 2H23.5903C24.2552 2 24.8232 2.23544 25.2943 2.70633C25.7652 3.17744 26.0007 3.74544 26.0007 4.41033V27.5897C26.0007 28.2546 25.7652 28.8226 25.2943 29.2937C24.8232 29.7646 24.2552 30 23.5903 30H11.0777ZM10.6673 26.3333V27.5897C10.6673 27.6923 10.7101 27.7863 10.7957 27.8717C10.881 27.9572 10.975 28 11.0777 28H23.5903C23.693 28 23.787 27.9572 23.8723 27.8717C23.9579 27.7863 24.0007 27.6923 24.0007 27.5897V26.3333H10.6673ZM13.6673 14.405L6.57 21.5027C6.38533 21.6871 6.15322 21.7816 5.87367 21.786C5.59433 21.7902 5.358 21.6958 5.16467 21.5027C4.97156 21.3093 4.875 21.0751 4.875 20.8C4.875 20.5249 4.97156 20.2907 5.16467 20.0973L12.2623 13H8.00067C7.71689 13 7.47933 12.9042 7.288 12.7127C7.09644 12.5213 7.00067 12.2838 7.00067 12C7.00067 11.7162 7.09644 11.4787 7.288 11.2873C7.47933 11.0958 7.71689 11 8.00067 11H14.4623C14.8059 11 15.0926 11.115 15.3223 11.345C15.5523 11.5748 15.6673 11.8614 15.6673 12.205V18.6667C15.6673 18.9504 15.5716 19.188 15.38 19.3793C15.1887 19.5709 14.9511 19.6667 14.6673 19.6667C14.3836 19.6667 14.146 19.5709 13.9547 19.3793C13.7631 19.188 13.6673 18.9504 13.6673 18.6667V14.405ZM10.6673 5.66667H24.0007V4.41033C24.0007 4.30767 23.9579 4.21367 23.8723 4.12833C23.787 4.04278 23.693 4 23.5903 4H11.0777C10.975 4 10.881 4.04278 10.7957 4.12833C10.7101 4.21367 10.6673 4.30767 10.6673 4.41033V5.66667Z" fill="#1C1B1F"/>
</g>
</svg>
