<svg width="36" height="36" viewBox="0 0 36 36" fill="none" xmlns="http://www.w3.org/2000/svg">
<mask id="mask0_7917_27774" style="mask-type:alpha" maskUnits="userSpaceOnUse" x="0" y="0" width="36" height="36">
<rect x="0.855469" y="0.855469" width="34.2857" height="34.2857" fill="#D9D9D9"/>
</mask>
<g mask="url(#mask0_7917_27774)">
<path d="M25.3719 30.7418L27.2623 28.8379L24.3858 25.9614L22.4819 27.8518C22.0662 28.2675 21.8583 28.7492 21.8583 29.2968C21.8583 29.8444 22.0662 30.3261 22.4819 30.7418C22.8976 31.1575 23.3793 31.3654 23.9269 31.3654C24.4745 31.3654 24.9562 31.1575 25.3719 30.7418ZM28.7537 27.3461L30.6576 25.4561C31.0733 25.0404 31.2789 24.5587 31.2744 24.0111C31.2699 23.4635 31.0598 22.9818 30.644 22.5661C30.2283 22.1594 29.7489 21.9538 29.2058 21.9493C28.6627 21.9445 28.1833 22.1501 27.7676 22.5661L25.8773 24.4697L28.7537 27.3461ZM26.8858 32.2693C26.0596 33.0952 25.0711 33.506 23.9201 33.5014C22.7689 33.4969 21.7804 33.0862 20.9544 32.2693C20.1375 31.4433 19.7268 30.4548 19.7223 29.3036C19.7177 28.1524 20.1284 27.1638 20.9544 26.3379L26.2537 21.0386C27.0706 20.2217 28.0592 19.8132 29.2194 19.8132C30.3796 19.8132 31.3682 20.2217 32.1851 21.0386C33.0111 21.8645 33.424 22.8531 33.424 24.0043C33.424 25.1552 33.0111 26.1437 32.1851 26.9697L26.8858 32.2693ZM8.43797 30.1429C7.72559 30.1429 7.11702 29.8906 6.61225 29.3861C6.10773 28.8813 5.85547 28.2727 5.85547 27.5604V8.43964C5.85547 7.72726 6.10773 7.11869 6.61225 6.61393C7.11702 6.10941 7.72559 5.85714 8.43797 5.85714H14.7951C14.8849 5.06405 15.2311 4.38964 15.8337 3.83393C16.4361 3.27798 17.1576 3 17.9983 3C18.8481 3 19.5743 3.27798 20.1769 3.83393C20.7795 4.38964 21.1211 5.06405 21.2015 5.85714H27.5587C28.2711 5.85714 28.8796 6.10941 29.3844 6.61393C29.8889 7.11869 30.1412 7.72726 30.1412 8.43964V16.5164C29.784 16.4431 29.4269 16.4111 29.0698 16.4204C28.7126 16.4294 28.3555 16.4605 27.9983 16.5136V8.43964C27.9983 8.31131 27.9571 8.20595 27.8748 8.12357C27.7924 8.04119 27.687 8 27.5587 8H8.43797C8.30964 8 8.20428 8.04119 8.1219 8.12357C8.03952 8.20595 7.99833 8.31131 7.99833 8.43964V27.5604C7.99833 27.6887 8.03952 27.7941 8.1219 27.8764C8.20428 27.9588 8.30964 28 8.43797 28H16.4433C16.3812 28.3572 16.3455 28.7143 16.3362 29.0714C16.3271 29.4286 16.3592 29.7857 16.4323 30.1429H8.43797ZM17.9983 7.06607C18.3079 7.06607 18.5638 6.96488 18.7662 6.7625C18.9686 6.56012 19.0698 6.30417 19.0698 5.99464C19.0698 5.68512 18.9686 5.42917 18.7662 5.22679C18.5638 5.0244 18.3079 4.92321 17.9983 4.92321C17.6888 4.92321 17.4329 5.0244 17.2305 5.22679C17.0281 5.42917 16.9269 5.68512 16.9269 5.99464C16.9269 6.30417 17.0281 6.56012 17.2305 6.7625C17.4329 6.96488 17.6888 7.06607 17.9983 7.06607ZM11.2126 13.5218V11.3793H24.784V13.5218H11.2126ZM11.2126 19.0714V16.9286H24.784V17.8268C24.6209 17.9368 24.4662 18.0555 24.3198 18.1829C24.1733 18.31 24.0186 18.4551 23.8555 18.6182L23.4023 19.0714H11.2126ZM11.2126 24.6207V22.4782H19.9955L18.9187 23.555C18.7373 23.7362 18.5669 23.9138 18.4076 24.0879C18.2483 24.2619 18.1 24.4395 17.9626 24.6207H11.2126Z" fill="#1C1B1F"/>
</g>
</svg>
